<svg width="25" height="24" viewBox="0 0 34 30" fill="none" xmlns="http://www.w3.org/2000/svg">
<g clip-path="url(#clip0)">
<path d="M30.9445 17.6554L33.7144 5.46791C33.9144 4.58795 33.2456 3.75 32.3432 3.75H9.32859L8.79152 1.12441C8.6577 0.469981 8.08184 0 7.41381 0H1.40625C0.62959 0 0 0.62959 0 1.40625V2.34375C0 3.12041 0.62959 3.75 1.40625 3.75H5.50096L9.61705 23.8731C8.63232 24.4395 7.96875 25.5013 7.96875 26.7188C7.96875 28.5309 9.43781 30 11.25 30C13.0622 30 14.5312 28.5309 14.5312 26.7188C14.5312 25.8004 14.1535 24.9706 13.5455 24.375H25.8295C25.2215 24.9706 24.8438 25.8004 24.8438 26.7188C24.8438 28.5309 26.3128 30 28.125 30C29.9372 30 31.4062 28.5309 31.4062 26.7188C31.4062 25.4196 30.6511 24.297 29.5559 23.7653L29.8792 22.3429C30.0792 21.4629 29.4103 20.625 28.5079 20.625H12.7803L12.3968 18.75H29.5733C30.2299 18.75 30.799 18.2957 30.9445 17.6554Z" fill="white"/>
</g>
<defs>
<clipPath id="clip0">
<rect width="33.75" height="30" fill="white"/>
</clipPath>
</defs>
</svg>
