<svg xmlns="http://www.w3.org/2000/svg" width="42" height="38" viewBox="0 0 42 38" fill="none">
  <path d="M15.4902 15.875V28.375C15.4902 28.7894 15.6887 29.1868 16.042 29.4799C16.3953 29.7729 16.8745 29.9375 17.3741 29.9375C17.8737 29.9375 18.3529 29.7729 18.7062 29.4799C19.0595 29.1868 19.258 28.7894 19.258 28.375V15.875C19.258 15.4606 19.0595 15.0632 18.7062 14.7701C18.3529 14.4771 17.8737 14.3125 17.3741 14.3125C16.8745 14.3125 16.3953 14.4771 16.042 14.7701C15.6887 15.0632 15.4902 15.4606 15.4902 15.875Z" fill="black"/>
  <path d="M24.9096 14.3125C25.4092 14.3125 25.8884 14.4771 26.2417 14.7701C26.5949 15.0632 26.7934 15.4606 26.7934 15.875V28.375C26.7934 28.7894 26.5949 29.1868 26.2417 29.4799C25.8884 29.7729 25.4092 29.9375 24.9096 29.9375C24.4099 29.9375 23.9308 29.7729 23.5775 29.4799C23.2242 29.1868 23.0257 28.7894 23.0257 28.375V15.875C23.0257 15.4606 23.2242 15.0632 23.5775 14.7701C23.9308 14.4771 24.4099 14.3125 24.9096 14.3125Z" fill="black"/>
  <path d="M28.6773 6.5H39.9805C40.4801 6.5 40.9593 6.66462 41.3126 6.95765C41.6659 7.25067 41.8643 7.6481 41.8643 8.0625C41.8643 8.4769 41.6659 8.87433 41.3126 9.16735C40.9593 9.46038 40.4801 9.625 39.9805 9.625H37.8969L35.0636 30.8C34.8077 32.7111 33.711 34.4767 31.9835 35.759C30.256 37.0413 28.0191 37.7502 25.7008 37.75H16.5829C14.2646 37.7502 12.0276 37.0413 10.3001 35.759C8.57266 34.4767 7.476 32.7111 7.22006 30.8L4.38296 9.625H2.30318C1.80354 9.625 1.32438 9.46038 0.971083 9.16735C0.61779 8.87433 0.419312 8.4769 0.419312 8.0625C0.419312 7.6481 0.61779 7.25067 0.971083 6.95765C1.32438 6.66462 1.80354 6.5 2.30318 6.5H13.6064C13.6064 4.8424 14.4003 3.25268 15.8135 2.08058C17.2266 0.90848 19.1433 0.25 21.1418 0.25C23.1404 0.25 25.057 0.90848 26.4702 2.08058C27.8834 3.25268 28.6773 4.8424 28.6773 6.5ZM21.1418 3.375C20.1426 3.375 19.1842 3.70424 18.4776 4.29029C17.7711 4.87634 17.3741 5.6712 17.3741 6.5H24.9096C24.9096 5.6712 24.5126 4.87634 23.806 4.29029C23.0994 3.70424 22.1411 3.375 21.1418 3.375ZM8.17707 9.625L10.9652 30.4563C11.1191 31.6027 11.7772 32.6618 12.8137 33.4309C13.8502 34.2 15.1921 34.6252 16.5829 34.625H25.7008C27.0909 34.6244 28.4319 34.1989 29.4676 33.4298C30.5033 32.6608 31.1609 31.6021 31.3147 30.4563L34.1104 9.625H8.18084H8.17707Z" fill="black"/>
</svg>