<svg xmlns="http://www.w3.org/2000/svg" xmlns:xlink="http://www.w3.org/1999/xlink" viewBox="0 0 48 48" width="29px" height="30px">
  <g id="surface194046832">
  <path style="fill:#fff;stroke-width:1;stroke-linecap:butt;stroke-linejoin:round;stroke:rgb(80.000001%,80.000001%,80.000001%);stroke-opacity:1;stroke-miterlimit:10;" d="M 157.662721 85.999999 C 157.662721 125.584183 125.584183 157.662721 85.999999 157.662721 C 46.415814 157.662721 14.337276 125.584183 14.337276 85.999999 C 14.337276 46.415814 46.415814 14.337276 85.999999 14.337276 C 125.584183 14.337276 157.662721 46.415814 157.662721 85.999999 Z M 157.662721 85.999999 " transform="matrix(0.277395,0,0,0.277395,0.144,0.144)"/>
  <path style="fill:#000;stroke-width:1;stroke-linecap:butt;stroke-linejoin:round;stroke:rgb(80.000001%,80.000001%,80.000001%);stroke-opacity:1;stroke-miterlimit:10;" d="M 105.235856 85.999999 L 93.167679 85.999999 L 93.167679 129.006081 L 75.255519 129.006081 L 75.255519 85.999999 L 64.496957 85.999999 L 64.496957 71.664638 L 75.255519 71.664638 L 75.255519 63.032441 C 75.255519 50.457316 80.479899 42.993916 95.294044 42.993916 L 107.50304 42.993916 L 107.50304 57.329277 L 99.307382 57.329277 C 93.533808 57.329277 93.167679 59.483805 93.167679 63.511225 L 93.167679 71.664638 L 107.50304 71.664638 Z M 105.235856 85.999999 " transform="matrix(0.277395,0,0,0.277395,0.144,0.144)"/>
  <path style=" stroke:none;fill:#fff" d="M 24 4.121094 C 13.019531 4.121094 4.121094 13.019531 4.121094 24 C 4.121094 34.980469 13.019531 43.878906 24 43.878906 C 34.980469 43.878906 43.878906 34.980469 43.878906 24 C 43.878906 13.019531 34.980469 4.121094 24 4.121094 Z M 24 4.121094 "/>
  <path style=" stroke:none;fill:#000" d="M 29.335938 24 L 25.988281 24 L 25.988281 35.929688 L 21.019531 35.929688 L 21.019531 24 L 18.035156 24 L 18.035156 20.023438 L 21.019531 20.023438 L 21.019531 17.628906 C 21.019531 14.140625 22.46875 12.070312 26.578125 12.070312 L 29.964844 12.070312 L 29.964844 16.046875 L 27.691406 16.046875 C 26.089844 16.046875 25.988281 16.644531 25.988281 17.761719 L 25.988281 20.023438 L 29.964844 20.023438 Z M 29.335938 24 "/>
  </g>
</svg>