<svg width="25" height="24" viewBox="0 0 31 30" fill="none" xmlns="http://www.w3.org/2000/svg">
<path fill-rule="evenodd" clip-rule="evenodd" d="M6.82234 0.0955354C3.35251 0.681833 0.661756 3.39371 0.0974138 6.8733C-0.0324713 7.67391 -0.0324713 22.3193 0.0974138 23.1199C0.665862 26.6248 3.37518 29.3341 6.88006 29.9026C7.68067 30.0325 22.3261 30.0325 23.1267 29.9026C26.6316 29.3341 29.3409 26.6248 29.9093 23.1199C30.0392 22.3193 30.0392 7.67391 29.9093 6.8733C29.3407 3.36688 26.6331 0.659343 23.1267 0.0906565C22.3632 -0.0332192 7.55792 -0.0287569 6.82234 0.0955354ZM23.0952 2.2796C24.3269 2.58959 25.2472 3.09801 26.0746 3.92539C26.9332 4.78401 27.4698 5.78769 27.7471 7.05358C27.8094 7.3381 27.8253 8.9511 27.8253 14.9966C27.8253 21.0421 27.8094 22.6551 27.7471 22.9397C27.4698 24.2056 26.9332 25.2092 26.0746 26.0679C25.216 26.9265 24.2123 27.4631 22.9464 27.7404C22.6619 27.8026 21.0489 27.8185 15.0034 27.8185C8.95786 27.8185 7.34486 27.8026 7.06034 27.7404C5.79445 27.4631 4.79077 26.9265 3.93215 26.0679C3.07353 25.2092 2.53691 24.2056 2.25965 22.9397C2.19735 22.6551 2.18147 21.0421 2.18147 14.9966C2.18147 8.9511 2.19735 7.3381 2.25965 7.05358C2.53691 5.78769 3.07353 4.78401 3.93215 3.92539C4.92988 2.92766 6.10664 2.36802 7.59582 2.18298C7.694 2.17078 11.1345 2.16566 15.2414 2.17155C21.9345 2.18113 22.7485 2.19232 23.0952 2.2796ZM22.4219 5.80108C21.7215 6.05085 21.359 6.87336 21.66 7.52957C22.0575 8.39598 23.0924 8.59102 23.7577 7.92493C24.3041 7.37791 24.3041 6.66946 23.7578 6.1232C23.3673 5.73271 22.9176 5.62425 22.4219 5.80108ZM13.7539 7.2864C11.7008 7.65083 9.95053 8.71549 8.72832 10.3436C7.17493 12.4127 6.76166 15.1669 7.63099 17.6555C8.26203 19.4619 9.64049 21.0456 11.3681 21.9491C14.4847 23.5789 18.3117 22.9357 20.7024 20.3804C21.7343 19.2775 22.365 18.052 22.6866 16.525C22.8654 15.6757 22.8654 14.377 22.6866 13.5277C22.3338 11.8527 21.5967 10.5111 20.3959 9.35855C19.3526 8.35725 18.0677 7.6779 16.5948 7.34887C16.0078 7.21774 14.3466 7.1812 13.7539 7.2864ZM16.4016 9.52098C17.5211 9.81847 18.6841 10.5733 19.3975 11.4654C19.8441 12.024 20.3018 12.9329 20.4866 13.6282C20.681 14.3595 20.6802 15.6988 20.485 16.4246C19.5646 19.8475 15.9258 21.6154 12.6851 20.2143C11.4359 19.6742 10.2809 18.5113 9.76645 17.2755C9.22007 15.963 9.15438 14.6255 9.57141 13.3023C10.2218 11.2387 11.9932 9.7388 14.2001 9.383C14.6269 9.31422 15.9311 9.39591 16.4016 9.52098Z" fill="white"/>
</svg>
